<svg xmlns="http://www.w3.org/2000/svg" xmlns:xlink="http://www.w3.org/1999/xlink" width="500" zoomAndPan="magnify" viewBox="0 0 375 374.999991" height="500" preserveAspectRatio="xMidYMid meet" version="1.0"><defs><clipPath id="2c5de3a762"><path d="M 11.1875 108 L 363.6875 108 L 363.6875 203.089844 L 11.1875 203.089844 Z M 11.1875 108 " clip-rule="nonzero"/></clipPath><clipPath id="f7eb11298f"><path d="M 171 188 L 186 188 L 186 203.089844 L 171 203.089844 Z M 171 188 " clip-rule="nonzero"/></clipPath><clipPath id="637b407c4f"><path d="M 189 188 L 204 188 L 204 203.089844 L 189 203.089844 Z M 189 188 " clip-rule="nonzero"/></clipPath><clipPath id="37b5a5b16e"><path d="M 31 221 L 356 221 L 356 333 L 31 333 Z M 31 221 " clip-rule="nonzero"/></clipPath><clipPath id="0cd84eb6df"><path d="M 230.585938 78.605469 L 363.625 238.171875 L 160.28125 407.710938 L 27.242188 248.144531 Z M 230.585938 78.605469 " clip-rule="nonzero"/></clipPath><clipPath id="fdfc40d346"><path d="M 230.585938 78.605469 L 363.625 238.171875 L 160.28125 407.710938 L 27.242188 248.144531 Z M 230.585938 78.605469 " clip-rule="nonzero"/></clipPath></defs><path fill="#f14902" d="M 72.855469 73.902344 C 58.960938 73.902344 47.699219 85.164062 47.699219 99.050781 C 47.699219 108.277344 52.664062 116.347656 60.066406 120.726562 L 60.066406 187.152344 L 85.632812 187.152344 L 85.632812 120.726562 C 93.039062 116.347656 98.003906 108.277344 98.003906 99.050781 C 98.003906 85.164062 86.742188 73.902344 72.855469 73.902344 Z M 88.242188 107.875 L 72.855469 116.757812 L 57.460938 107.875 L 57.460938 90.101562 L 72.855469 81.21875 L 88.242188 90.101562 L 88.242188 107.875 " fill-opacity="1" fill-rule="nonzero"/><g clip-path="url(#2c5de3a762)"><path fill="#f14902" d="M 363.578125 203.066406 L 291.753906 203.066406 L 187.5 147.230469 L 83.234375 203.066406 L 11.410156 203.066406 L 187.5 108.773438 L 363.578125 203.066406 " fill-opacity="1" fill-rule="nonzero"/></g><path fill="#f14902" d="M 175.554688 175.320312 C 178.113281 172.773438 181.644531 171.195312 185.542969 171.195312 L 185.542969 185.328125 L 171.410156 185.328125 C 171.410156 182.90625 172.023438 180.628906 173.089844 178.636719 C 173.746094 177.414062 174.570312 176.304688 175.554688 175.320312 " fill-opacity="1" fill-rule="nonzero"/><g clip-path="url(#f7eb11298f)"><path fill="#f14902" d="M 171.457031 188.980469 L 185.542969 188.980469 L 185.542969 203.066406 L 171.457031 203.066406 L 171.457031 188.980469 " fill-opacity="1" fill-rule="nonzero"/></g><path fill="#f14902" d="M 203.589844 185.328125 L 189.457031 185.328125 L 189.457031 171.195312 C 193.355469 171.195312 196.902344 172.773438 199.449219 175.320312 C 200.429688 176.304688 201.253906 177.414062 201.910156 178.636719 C 202.976562 180.628906 203.589844 182.90625 203.589844 185.328125 " fill-opacity="1" fill-rule="nonzero"/><g clip-path="url(#637b407c4f)"><path fill="#f14902" d="M 189.457031 188.980469 L 203.542969 188.980469 L 203.542969 203.066406 L 189.457031 203.066406 L 189.457031 188.980469 " fill-opacity="1" fill-rule="nonzero"/></g><path fill="#f14902" d="M 217.445312 93.242188 L 224.445312 93.242188 C 224.449219 93.570312 224.449219 93.902344 224.453125 94.242188 C 224.449219 95.449219 224.46875 96.753906 224.449219 98.136719 C 224.433594 99.519531 224.417969 100.976562 224.398438 102.484375 C 224.363281 103.992188 224.328125 105.554688 224.292969 107.136719 C 224.238281 108.71875 224.183594 110.328125 224.128906 111.9375 C 224.082031 113.542969 224 115.152344 223.917969 116.738281 C 223.847656 118.320312 223.769531 119.875 223.660156 121.386719 C 223.480469 124.398438 223.25 127.214844 223.027344 129.628906 C 222.808594 132.039062 222.585938 134.050781 222.410156 135.457031 C 222.238281 136.867188 222.117188 137.671875 222.117188 137.671875 C 222.015625 138.367188 222.003906 139.125 222.117188 139.851562 C 222.714844 143.804688 226.390625 146.515625 230.320312 145.914062 C 234.253906 145.3125 236.957031 141.621094 236.355469 137.671875 C 236.355469 137.671875 236.230469 136.867188 236.058594 135.457031 C 235.886719 134.050781 235.660156 132.039062 235.445312 129.628906 C 235.21875 127.214844 234.996094 124.398438 234.8125 121.386719 C 234.707031 119.875 234.628906 118.320312 234.550781 116.738281 C 234.46875 115.152344 234.390625 113.542969 234.339844 111.9375 C 234.285156 110.328125 234.230469 108.71875 234.175781 107.136719 C 234.140625 105.554688 234.105469 103.992188 234.070312 102.484375 C 234.054688 100.976562 234.039062 99.519531 234.023438 98.136719 C 234 96.753906 234.023438 95.449219 234.019531 94.242188 C 234.019531 93.902344 234.023438 93.570312 234.023438 93.242188 L 241.042969 93.242188 C 247.273438 93.242188 252.324219 88.191406 252.324219 81.960938 L 252.324219 79.15625 L 206.152344 79.15625 L 206.152344 81.894531 C 206.152344 88.164062 211.210938 93.242188 217.445312 93.242188 " fill-opacity="1" fill-rule="nonzero"/><path fill="#f14902" d="M 252.324219 47.070312 L 248.765625 47.070312 L 246.660156 55.1875 L 245.363281 47.070312 L 243.910156 47.070312 L 243.101562 51.128906 L 242.128906 47.070312 L 234.039062 47.070312 L 232.746094 57.457031 L 231.609375 47.070312 L 229.234375 47.070312 L 227.726562 57.457031 L 226.917969 47.070312 L 221.742188 47.070312 L 220.769531 52.261719 L 219.636719 47.070312 L 216.398438 47.070312 L 213.484375 61.679688 L 209.925781 47.070312 L 206.152344 47.070312 L 206.152344 76.285156 L 252.324219 76.285156 L 252.324219 47.070312 " fill-opacity="1" fill-rule="nonzero"/><path fill="#f14902" d="M 188.433594 75.890625 C 187.777344 75.234375 159.039062 46.839844 158.414062 67.75 L 158.414062 153.242188 L 139.109375 153.242188 L 139.109375 69.933594 C 139.109375 68.183594 138.589844 66.46875 137.59375 65.027344 C 135.332031 61.742188 130.503906 57.339844 122.898438 63.101562 C 121.585938 64.097656 120.09375 64.679688 118.546875 64.773438 L 112.332031 65.144531 C 111.355469 65.210938 110.476562 64.488281 110.136719 63.367188 C 109.070312 59.785156 107.246094 51.65625 110.074219 44.433594 C 110.445312 43.488281 111.230469 42.886719 112.097656 42.894531 C 116.3125 42.9375 129.503906 42.894531 135.5 40.640625 C 142.6875 37.9375 175.398438 37.34375 188.433594 75.890625 " fill-opacity="1" fill-rule="nonzero"/><path fill="#f14902" d="M 349.625 65.363281 L 349.625 75.1875 C 349.625 79.539062 346.097656 83.070312 341.742188 83.070312 L 281.335938 83.070312 C 276.984375 83.070312 273.453125 79.539062 273.453125 75.1875 L 273.453125 65.386719 C 273.453125 61.035156 276.984375 57.503906 281.335938 57.503906 L 341.75 57.503906 C 346.101562 57.503906 349.625 61.019531 349.625 65.363281 " fill-opacity="1" fill-rule="nonzero"/><path fill="#f14902" d="M 314.148438 143.066406 L 308.933594 143.066406 L 308.933594 125.828125 C 308.933594 124.683594 308.359375 123.613281 307.410156 122.980469 L 266.644531 95.695312 C 264.046875 93.957031 262.496094 91.058594 262.496094 87.941406 L 262.496094 75.203125 C 262.496094 71.046875 265.867188 67.675781 270.023438 67.675781 L 292.757812 67.675781 L 292.757812 72.894531 L 270.203125 72.894531 C 268.976562 72.894531 267.976562 73.898438 267.976562 75.125 L 267.976562 87.847656 C 267.976562 89.199219 268.644531 90.453125 269.761719 91.207031 L 310.296875 118.539062 C 312.710938 120.164062 314.148438 122.878906 314.148438 125.796875 L 314.148438 143.066406 " fill-opacity="1" fill-rule="nonzero"/><path fill="#f14902" d="M 311.675781 197.421875 C 307.277344 197.421875 303.714844 193.859375 303.714844 189.46875 L 303.714844 138.1875 C 303.714844 133.792969 307.277344 130.234375 311.675781 130.234375 C 316.066406 130.234375 319.628906 133.792969 319.628906 138.1875 L 319.628906 189.46875 C 319.628906 193.859375 316.066406 197.421875 311.675781 197.421875 " fill-opacity="1" fill-rule="nonzero"/><g clip-path="url(#37b5a5b16e)"><g clip-path="url(#0cd84eb6df)"><g clip-path="url(#fdfc40d346)"><path fill="#f14902" d="M 243.839844 238.476562 L 243.554688 235.773438 L 235.8125 236.96875 C 233.855469 237.269531 232.203125 238.296875 231.144531 239.707031 C 230.644531 240.371094 230.277344 241.121094 230.070312 241.917969 C 229.898438 242.589844 229.839844 243.296875 229.914062 244.019531 L 229.917969 244.039062 L 221.550781 244.847656 C 217.234375 245.269531 213.339844 247.746094 211.132812 251.476562 L 199.554688 271.023438 C 198.558594 272.714844 196.683594 273.691406 194.757812 273.589844 C 194.550781 273.578125 194.339844 273.554688 194.132812 273.515625 L 194.121094 273.515625 L 173.5 269.757812 C 172.394531 269.558594 171.277344 269.800781 170.351562 270.441406 C 169.429688 271.085938 168.8125 272.046875 168.617188 273.15625 C 168.214844 275.421875 169.730469 277.601562 171.996094 278.015625 L 192.671875 281.78125 C 194.304688 282.070312 195.953125 282.054688 197.550781 281.753906 C 198.640625 281.550781 199.710938 281.214844 200.734375 280.742188 C 203.269531 279.582031 205.355469 277.699219 206.777344 275.300781 L 218.351562 255.75 C 219.203125 254.3125 220.699219 253.363281 222.359375 253.203125 L 230.796875 252.386719 L 230.875 253.164062 C 230.921875 253.613281 231.023438 254.042969 231.160156 254.457031 C 231.414062 255.191406 231.804688 255.867188 232.304688 256.453125 C 233.648438 258.019531 235.777344 258.964844 238.113281 258.835938 L 245.933594 258.390625 L 245.59375 255.164062 Z M 355.265625 235.457031 C 353.96875 226.734375 343.191406 220.761719 336.175781 221.503906 L 247.707031 235.132812 L 250.128906 258.152344 L 339.496094 253.082031 C 346.511719 252.34375 355.8125 244.261719 355.265625 235.457031 Z M 182.675781 332.585938 C 167.128906 334.355469 145.832031 328.507812 122.023438 313.257812 L 33.378906 253.257812 C 29.75 250.804688 30.652344 245.269531 34.859375 244.148438 L 98.453125 227.253906 C 121.953125 220.425781 148.292969 222.417969 175.671875 243.4375 C 183.449219 249.414062 189.273438 257.558594 192.4375 266.804688 L 193.21875 269.085938 L 174.25 265.632812 C 172.039062 265.226562 169.804688 265.714844 167.957031 267 C 166.109375 268.28125 164.878906 270.210938 164.484375 272.421875 C 163.890625 275.789062 165.402344 279.050781 168.074219 280.851562 C 169.003906 281.476562 170.074219 281.929688 171.242188 282.140625 L 191.925781 285.910156 L 191.9375 285.910156 C 194.277344 286.324219 196.640625 286.269531 198.921875 285.757812 L 203.503906 299.15625 C 208.738281 314.445312 198.722656 330.753906 182.675781 332.585938 " fill-opacity="1" fill-rule="nonzero"/></g></g></g></svg>