<svg xmlns="http://www.w3.org/2000/svg" xmlns:xlink="http://www.w3.org/1999/xlink" width="180" zoomAndPan="magnify" viewBox="0 0 135 44.999999" height="60" preserveAspectRatio="xMidYMid meet" version="1.0"><defs><g/><clipPath id="acdcf7ae0b"><path d="M 0.898438 10 L 54 10 L 54 24.726562 L 0.898438 24.726562 Z M 0.898438 10 " clip-rule="nonzero"/></clipPath><clipPath id="ae040747e7"><path d="M 25 22 L 28 22 L 28 24.726562 L 25 24.726562 Z M 25 22 " clip-rule="nonzero"/></clipPath><clipPath id="1e3877aa4b"><path d="M 27 22 L 30 22 L 30 24.726562 L 27 24.726562 Z M 27 22 " clip-rule="nonzero"/></clipPath><clipPath id="bd15f7796c"><path d="M 44 13 L 48 13 L 48 24.726562 L 44 24.726562 Z M 44 13 " clip-rule="nonzero"/></clipPath><clipPath id="4a31823903"><path d="M 3 27 L 53 27 L 53 45 L 3 45 Z M 3 27 " clip-rule="nonzero"/></clipPath><clipPath id="22b434c8cb"><path d="M 33.914062 6.1875 L 54.085938 30.382812 L 23.554688 55.835938 L 3.382812 31.644531 Z M 33.914062 6.1875 " clip-rule="nonzero"/></clipPath><clipPath id="faa532cba9"><path d="M 33.914062 6.1875 L 54.085938 30.382812 L 23.554688 55.835938 L 3.382812 31.644531 Z M 33.914062 6.1875 " clip-rule="nonzero"/></clipPath></defs><path fill="#ffffff" d="M 10.179688 5.476562 C 8.085938 5.476562 6.394531 7.171875 6.394531 9.261719 C 6.394531 10.648438 7.140625 11.863281 8.253906 12.523438 L 8.253906 22.519531 L 12.101562 22.519531 L 12.101562 12.523438 C 13.214844 11.863281 13.960938 10.648438 13.960938 9.261719 C 13.960938 7.171875 12.269531 5.476562 10.179688 5.476562 Z M 12.492188 10.589844 L 10.179688 11.925781 L 7.863281 10.589844 L 7.863281 7.914062 L 10.179688 6.578125 L 12.492188 7.914062 L 12.492188 10.589844 " fill-opacity="1" fill-rule="nonzero"/><g clip-path="url(#acdcf7ae0b)"><path fill="#ffffff" d="M 53.925781 24.914062 L 43.117188 24.914062 L 27.429688 16.511719 L 11.742188 24.914062 L 0.933594 24.914062 L 27.429688 10.722656 L 53.925781 24.914062 " fill-opacity="1" fill-rule="nonzero"/></g><path fill="#ffffff" d="M 25.632812 20.738281 C 26.015625 20.355469 26.546875 20.117188 27.136719 20.117188 L 27.136719 22.242188 L 25.007812 22.242188 C 25.007812 21.878906 25.101562 21.539062 25.261719 21.238281 C 25.359375 21.054688 25.484375 20.886719 25.632812 20.738281 " fill-opacity="1" fill-rule="nonzero"/><g clip-path="url(#ae040747e7)"><path fill="#ffffff" d="M 25.015625 22.792969 L 27.136719 22.792969 L 27.136719 24.914062 L 25.015625 24.914062 L 25.015625 22.792969 " fill-opacity="1" fill-rule="nonzero"/></g><path fill="#ffffff" d="M 29.851562 22.242188 L 27.722656 22.242188 L 27.722656 20.117188 C 28.3125 20.117188 28.84375 20.355469 29.226562 20.738281 C 29.375 20.886719 29.5 21.054688 29.597656 21.238281 C 29.757812 21.539062 29.851562 21.878906 29.851562 22.242188 " fill-opacity="1" fill-rule="nonzero"/><g clip-path="url(#1e3877aa4b)"><path fill="#ffffff" d="M 27.722656 22.792969 L 29.84375 22.792969 L 29.84375 24.914062 L 27.722656 24.914062 L 27.722656 22.792969 " fill-opacity="1" fill-rule="nonzero"/></g><path fill="#ffffff" d="M 31.9375 8.386719 L 32.988281 8.386719 C 32.988281 8.4375 32.988281 8.488281 32.988281 8.539062 C 32.988281 8.71875 32.992188 8.917969 32.988281 9.125 C 32.988281 9.332031 32.984375 9.550781 32.980469 9.777344 C 32.976562 10.003906 32.972656 10.238281 32.964844 10.476562 C 32.957031 10.714844 32.949219 10.957031 32.941406 11.199219 C 32.933594 11.441406 32.921875 11.683594 32.910156 11.921875 C 32.898438 12.160156 32.886719 12.394531 32.871094 12.621094 C 32.84375 13.078125 32.808594 13.5 32.773438 13.863281 C 32.742188 14.226562 32.707031 14.527344 32.683594 14.738281 C 32.65625 14.953125 32.636719 15.074219 32.636719 15.074219 C 32.621094 15.179688 32.621094 15.292969 32.636719 15.402344 C 32.726562 15.996094 33.28125 16.402344 33.871094 16.3125 C 34.464844 16.222656 34.871094 15.667969 34.78125 15.074219 C 34.78125 15.074219 34.761719 14.953125 34.738281 14.738281 C 34.710938 14.527344 34.675781 14.226562 34.644531 13.863281 C 34.609375 13.5 34.578125 13.078125 34.546875 12.621094 C 34.53125 12.394531 34.519531 12.160156 34.507812 11.921875 C 34.496094 11.683594 34.484375 11.441406 34.476562 11.199219 C 34.46875 10.957031 34.460938 10.714844 34.453125 10.476562 C 34.449219 10.238281 34.441406 10.003906 34.4375 9.777344 C 34.433594 9.550781 34.433594 9.332031 34.429688 9.125 C 34.425781 8.917969 34.429688 8.71875 34.429688 8.539062 C 34.429688 8.488281 34.429688 8.4375 34.429688 8.386719 L 35.484375 8.386719 C 36.425781 8.386719 37.183594 7.628906 37.183594 6.691406 L 37.183594 6.269531 L 30.234375 6.269531 L 30.234375 6.679688 C 30.234375 7.625 30.996094 8.386719 31.9375 8.386719 " fill-opacity="1" fill-rule="nonzero"/><path fill="#ffffff" d="M 37.183594 1.441406 L 36.648438 1.441406 L 36.332031 2.660156 L 36.136719 1.441406 L 35.917969 1.441406 L 35.796875 2.050781 L 35.648438 1.441406 L 34.433594 1.441406 L 34.238281 3.003906 L 34.066406 1.441406 L 33.710938 1.441406 L 33.480469 3.003906 L 33.359375 1.441406 L 32.582031 1.441406 L 32.433594 2.222656 L 32.265625 1.441406 L 31.777344 1.441406 L 31.339844 3.636719 L 30.804688 1.441406 L 30.234375 1.441406 L 30.234375 5.835938 L 37.183594 5.835938 L 37.183594 1.441406 " fill-opacity="1" fill-rule="nonzero"/><path fill="#ffffff" d="M 27.570312 5.777344 C 27.472656 5.679688 23.148438 1.40625 23.050781 4.550781 L 23.050781 17.414062 L 20.148438 17.414062 L 20.148438 4.878906 C 20.148438 4.617188 20.070312 4.359375 19.921875 4.140625 C 19.578125 3.648438 18.851562 2.984375 17.707031 3.851562 C 17.511719 4.003906 17.285156 4.089844 17.054688 4.105469 L 16.117188 4.160156 C 15.972656 4.167969 15.839844 4.0625 15.789062 3.890625 C 15.628906 3.351562 15.355469 2.128906 15.777344 1.042969 C 15.835938 0.902344 15.953125 0.808594 16.082031 0.8125 C 16.71875 0.816406 18.703125 0.8125 19.605469 0.472656 C 20.6875 0.0664062 25.609375 -0.0234375 27.570312 5.777344 " fill-opacity="1" fill-rule="nonzero"/><path fill="#ffffff" d="M 51.824219 4.191406 L 51.824219 5.671875 C 51.824219 6.324219 51.292969 6.855469 50.640625 6.855469 L 41.550781 6.855469 C 40.894531 6.855469 40.363281 6.324219 40.363281 5.671875 L 40.363281 4.195312 C 40.363281 3.542969 40.894531 3.011719 41.550781 3.011719 L 50.640625 3.011719 C 51.292969 3.011719 51.824219 3.539062 51.824219 4.191406 " fill-opacity="1" fill-rule="nonzero"/><path fill="#ffffff" d="M 46.488281 15.886719 L 45.703125 15.886719 L 45.703125 13.289062 C 45.703125 13.117188 45.617188 12.957031 45.472656 12.863281 L 39.339844 8.757812 C 38.949219 8.496094 38.714844 8.058594 38.714844 7.589844 L 38.714844 5.671875 C 38.714844 5.046875 39.222656 4.539062 39.847656 4.539062 L 43.269531 4.539062 L 43.269531 5.324219 L 39.875 5.324219 C 39.691406 5.324219 39.539062 5.476562 39.539062 5.660156 L 39.539062 7.574219 C 39.539062 7.78125 39.640625 7.96875 39.808594 8.082031 L 45.90625 12.195312 C 46.269531 12.4375 46.488281 12.847656 46.488281 13.285156 L 46.488281 15.886719 " fill-opacity="1" fill-rule="nonzero"/><g clip-path="url(#bd15f7796c)"><path fill="#ffffff" d="M 46.113281 24.0625 C 45.453125 24.0625 44.917969 23.527344 44.917969 22.867188 L 44.917969 15.152344 C 44.917969 14.488281 45.453125 13.953125 46.113281 13.953125 C 46.773438 13.953125 47.3125 14.488281 47.3125 15.152344 L 47.3125 22.867188 C 47.3125 23.527344 46.773438 24.0625 46.113281 24.0625 " fill-opacity="1" fill-rule="nonzero"/></g><g clip-path="url(#4a31823903)"><g clip-path="url(#22b434c8cb)"><g clip-path="url(#faa532cba9)"><path fill="#ffffff" d="M 35.90625 30.28125 L 35.863281 29.875 L 34.699219 30.054688 C 34.402344 30.097656 34.152344 30.253906 33.996094 30.464844 C 33.917969 30.566406 33.863281 30.679688 33.832031 30.800781 C 33.808594 30.902344 33.796875 31.007812 33.808594 31.117188 L 32.546875 31.242188 C 31.898438 31.304688 31.3125 31.675781 30.980469 32.238281 L 29.234375 35.1875 C 29.085938 35.441406 28.800781 35.585938 28.511719 35.570312 C 28.480469 35.570312 28.449219 35.566406 28.417969 35.5625 L 28.414062 35.5625 L 25.308594 34.996094 C 25.140625 34.964844 24.972656 35 24.832031 35.097656 C 24.695312 35.195312 24.601562 35.339844 24.570312 35.507812 C 24.511719 35.847656 24.742188 36.175781 25.082031 36.238281 L 28.195312 36.804688 C 28.441406 36.851562 28.691406 36.847656 28.933594 36.800781 C 29.097656 36.773438 29.257812 36.722656 29.414062 36.648438 C 29.792969 36.476562 30.109375 36.191406 30.324219 35.828125 L 32.066406 32.882812 C 32.195312 32.667969 32.421875 32.523438 32.671875 32.5 L 33.941406 32.375 L 33.953125 32.496094 C 33.960938 32.5625 33.976562 32.625 33.996094 32.6875 C 34.035156 32.800781 34.09375 32.902344 34.167969 32.988281 C 34.371094 33.226562 34.691406 33.367188 35.046875 33.347656 L 36.222656 33.28125 L 36.171875 32.796875 Z M 52.699219 29.824219 C 52.503906 28.511719 50.878906 27.613281 49.820312 27.722656 L 36.492188 29.777344 L 36.855469 33.246094 L 50.324219 32.480469 C 51.378906 32.371094 52.78125 31.152344 52.699219 29.824219 Z M 26.691406 44.460938 C 24.347656 44.730469 21.140625 43.847656 17.550781 41.550781 L 4.191406 32.507812 C 3.644531 32.136719 3.78125 31.304688 4.417969 31.136719 L 14 28.589844 C 17.539062 27.5625 21.511719 27.859375 25.636719 31.027344 C 26.808594 31.929688 27.683594 33.15625 28.160156 34.550781 L 28.28125 34.894531 L 25.421875 34.371094 C 25.089844 34.3125 24.75 34.386719 24.472656 34.578125 C 24.195312 34.773438 24.007812 35.0625 23.949219 35.394531 C 23.859375 35.902344 24.089844 36.394531 24.492188 36.667969 C 24.628906 36.761719 24.792969 36.828125 24.96875 36.859375 L 28.085938 37.429688 C 28.4375 37.492188 28.796875 37.484375 29.140625 37.40625 L 29.828125 39.425781 C 30.617188 41.730469 29.109375 44.1875 26.691406 44.460938 " fill-opacity="1" fill-rule="nonzero"/></g></g></g><g fill="#ffffff" fill-opacity="1"><g transform="translate(56.662344, 14.731386)"><g><path d="M 5.8125 -5.28125 C 5.664062 -5.539062 5.460938 -5.738281 5.203125 -5.875 C 4.941406 -6.007812 4.640625 -6.078125 4.296875 -6.078125 C 3.679688 -6.078125 3.191406 -5.875 2.828125 -5.46875 C 2.460938 -5.070312 2.28125 -4.539062 2.28125 -3.875 C 2.28125 -3.164062 2.472656 -2.609375 2.859375 -2.203125 C 3.242188 -1.804688 3.769531 -1.609375 4.4375 -1.609375 C 4.90625 -1.609375 5.296875 -1.722656 5.609375 -1.953125 C 5.929688 -2.191406 6.164062 -2.53125 6.3125 -2.96875 L 3.921875 -2.96875 L 3.921875 -4.359375 L 8.015625 -4.359375 L 8.015625 -2.609375 C 7.878906 -2.140625 7.644531 -1.703125 7.3125 -1.296875 C 6.976562 -0.890625 6.550781 -0.5625 6.03125 -0.3125 C 5.519531 -0.0625 4.941406 0.0625 4.296875 0.0625 C 3.535156 0.0625 2.851562 -0.101562 2.25 -0.4375 C 1.65625 -0.78125 1.191406 -1.25 0.859375 -1.84375 C 0.523438 -2.4375 0.359375 -3.113281 0.359375 -3.875 C 0.359375 -4.632812 0.523438 -5.3125 0.859375 -5.90625 C 1.191406 -6.507812 1.65625 -6.976562 2.25 -7.3125 C 2.84375 -7.644531 3.523438 -7.8125 4.296875 -7.8125 C 5.210938 -7.8125 5.988281 -7.585938 6.625 -7.140625 C 7.257812 -6.691406 7.679688 -6.070312 7.890625 -5.28125 Z M 5.8125 -5.28125 "/></g></g></g><g fill="#ffffff" fill-opacity="1"><g transform="translate(69.055102, 14.731386)"><g><path d="M 2.53125 -7.71875 L 2.53125 -3.109375 C 2.53125 -2.640625 2.644531 -2.28125 2.875 -2.03125 C 3.101562 -1.78125 3.4375 -1.65625 3.875 -1.65625 C 4.3125 -1.65625 4.644531 -1.78125 4.875 -2.03125 C 5.113281 -2.28125 5.234375 -2.640625 5.234375 -3.109375 L 5.234375 -7.71875 L 7.109375 -7.71875 L 7.109375 -3.109375 C 7.109375 -2.421875 6.960938 -1.835938 6.671875 -1.359375 C 6.378906 -0.890625 5.984375 -0.53125 5.484375 -0.28125 C 4.992188 -0.0390625 4.445312 0.078125 3.84375 0.078125 C 3.226562 0.078125 2.679688 -0.0390625 2.203125 -0.28125 C 1.722656 -0.519531 1.34375 -0.878906 1.0625 -1.359375 C 0.789062 -1.835938 0.65625 -2.421875 0.65625 -3.109375 L 0.65625 -7.71875 Z M 2.53125 -7.71875 "/></g></g></g><g fill="#ffffff" fill-opacity="1"><g transform="translate(80.821307, 14.731386)"><g><path d="M 4.625 0 L 3.015625 -2.921875 L 2.5625 -2.921875 L 2.5625 0 L 0.6875 0 L 0.6875 -7.71875 L 3.84375 -7.71875 C 4.445312 -7.71875 4.960938 -7.609375 5.390625 -7.390625 C 5.816406 -7.179688 6.132812 -6.890625 6.34375 -6.515625 C 6.5625 -6.148438 6.671875 -5.742188 6.671875 -5.296875 C 6.671875 -4.773438 6.523438 -4.3125 6.234375 -3.90625 C 5.953125 -3.507812 5.53125 -3.226562 4.96875 -3.0625 L 6.75 0 Z M 2.5625 -4.25 L 3.734375 -4.25 C 4.078125 -4.25 4.332031 -4.332031 4.5 -4.5 C 4.675781 -4.664062 4.765625 -4.90625 4.765625 -5.21875 C 4.765625 -5.507812 4.675781 -5.738281 4.5 -5.90625 C 4.332031 -6.070312 4.078125 -6.15625 3.734375 -6.15625 L 2.5625 -6.15625 Z M 2.5625 -4.25 "/></g></g></g><g fill="#ffffff" fill-opacity="1"><g transform="translate(92.004916, 14.731386)"><g><path d="M 5.15625 0 L 2.5625 -3.40625 L 2.5625 0 L 0.6875 0 L 0.6875 -7.71875 L 2.5625 -7.71875 L 2.5625 -4.328125 L 5.140625 -7.71875 L 7.34375 -7.71875 L 4.359375 -3.9375 L 7.453125 0 Z M 5.15625 0 "/></g></g></g><g fill="#ffffff" fill-opacity="1"><g transform="translate(103.683173, 14.731386)"><g><path d="M 7.375 -7.71875 L 7.375 0 L 5.484375 0 L 5.484375 -3.171875 L 2.5625 -3.171875 L 2.5625 0 L 0.6875 0 L 0.6875 -7.71875 L 2.5625 -7.71875 L 2.5625 -4.703125 L 5.484375 -4.703125 L 5.484375 -7.71875 Z M 7.375 -7.71875 "/></g></g></g><g fill="#ffffff" fill-opacity="1"><g transform="translate(115.735174, 14.731386)"><g><path d="M 5.484375 -1.359375 L 2.609375 -1.359375 L 2.140625 0 L 0.171875 0 L 2.96875 -7.71875 L 5.140625 -7.71875 L 7.9375 0 L 5.953125 0 Z M 5 -2.8125 L 4.046875 -5.640625 L 3.109375 -2.8125 Z M 5 -2.8125 "/></g></g></g><g fill="#ffffff" fill-opacity="1"><g transform="translate(127.853128, 14.731386)"><g><path d="M 3.46875 0.078125 C 2.90625 0.078125 2.398438 -0.0078125 1.953125 -0.1875 C 1.503906 -0.375 1.144531 -0.644531 0.875 -1 C 0.613281 -1.363281 0.476562 -1.800781 0.46875 -2.3125 L 2.46875 -2.3125 C 2.5 -2.019531 2.597656 -1.800781 2.765625 -1.65625 C 2.929688 -1.507812 3.148438 -1.4375 3.421875 -1.4375 C 3.703125 -1.4375 3.921875 -1.5 4.078125 -1.625 C 4.242188 -1.75 4.328125 -1.925781 4.328125 -2.15625 C 4.328125 -2.34375 4.257812 -2.5 4.125 -2.625 C 4 -2.75 3.84375 -2.851562 3.65625 -2.9375 C 3.46875 -3.019531 3.203125 -3.113281 2.859375 -3.21875 C 2.359375 -3.363281 1.953125 -3.515625 1.640625 -3.671875 C 1.328125 -3.828125 1.054688 -4.054688 0.828125 -4.359375 C 0.597656 -4.660156 0.484375 -5.050781 0.484375 -5.53125 C 0.484375 -6.25 0.742188 -6.8125 1.265625 -7.21875 C 1.785156 -7.625 2.460938 -7.828125 3.296875 -7.828125 C 4.148438 -7.828125 4.835938 -7.625 5.359375 -7.21875 C 5.878906 -6.8125 6.15625 -6.242188 6.1875 -5.515625 L 4.15625 -5.515625 C 4.144531 -5.765625 4.050781 -5.960938 3.875 -6.109375 C 3.707031 -6.253906 3.492188 -6.328125 3.234375 -6.328125 C 3.003906 -6.328125 2.816406 -6.265625 2.671875 -6.140625 C 2.535156 -6.023438 2.46875 -5.851562 2.46875 -5.625 C 2.46875 -5.375 2.582031 -5.175781 2.8125 -5.03125 C 3.050781 -4.894531 3.421875 -4.75 3.921875 -4.59375 C 4.421875 -4.414062 4.828125 -4.25 5.140625 -4.09375 C 5.453125 -3.945312 5.722656 -3.722656 5.953125 -3.421875 C 6.179688 -3.128906 6.296875 -2.753906 6.296875 -2.296875 C 6.296875 -1.859375 6.179688 -1.457031 5.953125 -1.09375 C 5.734375 -0.738281 5.410156 -0.453125 4.984375 -0.234375 C 4.554688 -0.0234375 4.050781 0.078125 3.46875 0.078125 Z M 3.46875 0.078125 "/></g></g></g><g fill="#ffffff" fill-opacity="1"><g transform="translate(56.662344, 35.608165)"><g><path d="M 1.9375 -5.828125 L 1.9375 0 L 0.515625 0 L 0.515625 -5.828125 Z M 1.9375 -5.828125 "/></g></g></g><g fill="#ffffff" fill-opacity="1"><g transform="translate(60.164966, 35.608165)"><g><path d="M 7.109375 -5.828125 L 7.109375 0 L 5.6875 0 L 5.6875 -3.5 L 4.390625 0 L 3.25 0 L 1.9375 -3.5 L 1.9375 0 L 0.515625 0 L 0.515625 -5.828125 L 2.1875 -5.828125 L 3.828125 -1.796875 L 5.4375 -5.828125 Z M 7.109375 -5.828125 "/></g></g></g><g fill="#ffffff" fill-opacity="1"><g transform="translate(68.838538, 35.608165)"><g><path d="M 4.953125 -3.953125 C 4.953125 -3.609375 4.875 -3.296875 4.71875 -3.015625 C 4.5625 -2.742188 4.320312 -2.519531 4 -2.34375 C 3.6875 -2.175781 3.289062 -2.09375 2.8125 -2.09375 L 1.9375 -2.09375 L 1.9375 0 L 0.515625 0 L 0.515625 -5.828125 L 2.8125 -5.828125 C 3.28125 -5.828125 3.671875 -5.742188 3.984375 -5.578125 C 4.304688 -5.421875 4.546875 -5.203125 4.703125 -4.921875 C 4.867188 -4.640625 4.953125 -4.316406 4.953125 -3.953125 Z M 2.703125 -3.21875 C 2.972656 -3.21875 3.175781 -3.28125 3.3125 -3.40625 C 3.445312 -3.53125 3.515625 -3.710938 3.515625 -3.953125 C 3.515625 -4.179688 3.445312 -4.359375 3.3125 -4.484375 C 3.175781 -4.609375 2.972656 -4.671875 2.703125 -4.671875 L 1.9375 -4.671875 L 1.9375 -3.21875 Z M 2.703125 -3.21875 "/></g></g></g><g fill="#ffffff" fill-opacity="1"><g transform="translate(75.071884, 35.608165)"><g><path d="M 3.484375 0 L 2.265625 -2.203125 L 1.9375 -2.203125 L 1.9375 0 L 0.515625 0 L 0.515625 -5.828125 L 2.890625 -5.828125 C 3.347656 -5.828125 3.738281 -5.742188 4.0625 -5.578125 C 4.394531 -5.421875 4.640625 -5.203125 4.796875 -4.921875 C 4.953125 -4.640625 5.03125 -4.328125 5.03125 -3.984375 C 5.03125 -3.597656 4.921875 -3.253906 4.703125 -2.953125 C 4.484375 -2.648438 4.160156 -2.4375 3.734375 -2.3125 L 5.09375 0 Z M 1.9375 -3.203125 L 2.8125 -3.203125 C 3.070312 -3.203125 3.265625 -3.265625 3.390625 -3.390625 C 3.523438 -3.515625 3.59375 -3.695312 3.59375 -3.9375 C 3.59375 -4.15625 3.523438 -4.328125 3.390625 -4.453125 C 3.265625 -4.578125 3.070312 -4.640625 2.8125 -4.640625 L 1.9375 -4.640625 Z M 1.9375 -3.203125 "/></g></g></g><g fill="#ffffff" fill-opacity="1"><g transform="translate(81.537629, 35.608165)"><g><path d="M 3.265625 0.0625 C 2.722656 0.0625 2.222656 -0.0625 1.765625 -0.3125 C 1.304688 -0.570312 0.941406 -0.929688 0.671875 -1.390625 C 0.410156 -1.847656 0.28125 -2.359375 0.28125 -2.921875 C 0.28125 -3.492188 0.410156 -4.003906 0.671875 -4.453125 C 0.941406 -4.910156 1.304688 -5.265625 1.765625 -5.515625 C 2.222656 -5.773438 2.722656 -5.90625 3.265625 -5.90625 C 3.816406 -5.90625 4.316406 -5.773438 4.765625 -5.515625 C 5.222656 -5.265625 5.582031 -4.910156 5.84375 -4.453125 C 6.113281 -4.003906 6.25 -3.492188 6.25 -2.921875 C 6.25 -2.359375 6.113281 -1.847656 5.84375 -1.390625 C 5.582031 -0.929688 5.222656 -0.570312 4.765625 -0.3125 C 4.316406 -0.0625 3.816406 0.0625 3.265625 0.0625 Z M 3.265625 -1.234375 C 3.734375 -1.234375 4.101562 -1.390625 4.375 -1.703125 C 4.65625 -2.015625 4.796875 -2.421875 4.796875 -2.921875 C 4.796875 -3.441406 4.65625 -3.851562 4.375 -4.15625 C 4.101562 -4.46875 3.734375 -4.625 3.265625 -4.625 C 2.796875 -4.625 2.421875 -4.46875 2.140625 -4.15625 C 1.859375 -3.851562 1.71875 -3.441406 1.71875 -2.921875 C 1.71875 -2.410156 1.859375 -2 2.140625 -1.6875 C 2.421875 -1.382812 2.796875 -1.234375 3.265625 -1.234375 Z M 3.265625 -1.234375 "/></g></g></g><g fill="#ffffff" fill-opacity="1"><g transform="translate(89.11559, 35.608165)"><g><path d="M 5.984375 -5.828125 L 3.921875 0 L 2.140625 0 L 0.078125 -5.828125 L 1.578125 -5.828125 L 3.03125 -1.421875 L 4.484375 -5.828125 Z M 5.984375 -5.828125 "/></g></g></g><g fill="#ffffff" fill-opacity="1"><g transform="translate(96.228741, 35.608165)"><g><path d="M 1.9375 -4.6875 L 1.9375 -3.515625 L 3.828125 -3.515625 L 3.828125 -2.421875 L 1.9375 -2.421875 L 1.9375 -1.140625 L 4.078125 -1.140625 L 4.078125 0 L 0.515625 0 L 0.515625 -5.828125 L 4.078125 -5.828125 L 4.078125 -4.6875 Z M 1.9375 -4.6875 "/></g></g></g><g fill="#ffffff" fill-opacity="1"><g transform="translate(101.773186, 35.608165)"><g><path d="M 7.109375 -5.828125 L 7.109375 0 L 5.6875 0 L 5.6875 -3.5 L 4.390625 0 L 3.25 0 L 1.9375 -3.5 L 1.9375 0 L 0.515625 0 L 0.515625 -5.828125 L 2.1875 -5.828125 L 3.828125 -1.796875 L 5.4375 -5.828125 Z M 7.109375 -5.828125 "/></g></g></g><g fill="#ffffff" fill-opacity="1"><g transform="translate(110.446758, 35.608165)"><g><path d="M 1.9375 -4.6875 L 1.9375 -3.515625 L 3.828125 -3.515625 L 3.828125 -2.421875 L 1.9375 -2.421875 L 1.9375 -1.140625 L 4.078125 -1.140625 L 4.078125 0 L 0.515625 0 L 0.515625 -5.828125 L 4.078125 -5.828125 L 4.078125 -4.6875 Z M 1.9375 -4.6875 "/></g></g></g><g fill="#ffffff" fill-opacity="1"><g transform="translate(115.991203, 35.608165)"><g><path d="M 5.71875 0 L 4.3125 0 L 1.9375 -3.59375 L 1.9375 0 L 0.515625 0 L 0.515625 -5.828125 L 1.9375 -5.828125 L 4.3125 -2.21875 L 4.3125 -5.828125 L 5.71875 -5.828125 Z M 5.71875 0 "/></g></g></g><g fill="#ffffff" fill-opacity="1"><g transform="translate(123.28696, 35.608165)"><g><path d="M 4.703125 -5.828125 L 4.703125 -4.6875 L 3.15625 -4.6875 L 3.15625 0 L 1.75 0 L 1.75 -4.6875 L 0.203125 -4.6875 L 0.203125 -5.828125 Z M 4.703125 -5.828125 "/></g></g></g><g fill="#ffffff" fill-opacity="1"><g transform="translate(129.246409, 35.608165)"><g><path d="M 2.625 0.0625 C 2.195312 0.0625 1.8125 -0.00390625 1.46875 -0.140625 C 1.132812 -0.285156 0.863281 -0.492188 0.65625 -0.765625 C 0.457031 -1.035156 0.351562 -1.363281 0.34375 -1.75 L 1.859375 -1.75 C 1.878906 -1.53125 1.953125 -1.363281 2.078125 -1.25 C 2.203125 -1.132812 2.367188 -1.078125 2.578125 -1.078125 C 2.785156 -1.078125 2.953125 -1.125 3.078125 -1.21875 C 3.203125 -1.320312 3.265625 -1.457031 3.265625 -1.625 C 3.265625 -1.769531 3.210938 -1.890625 3.109375 -1.984375 C 3.015625 -2.078125 2.894531 -2.15625 2.75 -2.21875 C 2.613281 -2.28125 2.414062 -2.347656 2.15625 -2.421875 C 1.78125 -2.535156 1.472656 -2.648438 1.234375 -2.765625 C 0.992188 -2.890625 0.785156 -3.0625 0.609375 -3.28125 C 0.441406 -3.507812 0.359375 -3.804688 0.359375 -4.171875 C 0.359375 -4.710938 0.554688 -5.132812 0.953125 -5.4375 C 1.347656 -5.75 1.859375 -5.90625 2.484375 -5.90625 C 3.128906 -5.90625 3.644531 -5.75 4.03125 -5.4375 C 4.425781 -5.132812 4.640625 -4.710938 4.671875 -4.171875 L 3.140625 -4.171875 C 3.128906 -4.359375 3.054688 -4.503906 2.921875 -4.609375 C 2.796875 -4.710938 2.632812 -4.765625 2.4375 -4.765625 C 2.269531 -4.765625 2.128906 -4.71875 2.015625 -4.625 C 1.910156 -4.539062 1.859375 -4.410156 1.859375 -4.234375 C 1.859375 -4.046875 1.945312 -3.898438 2.125 -3.796875 C 2.300781 -3.691406 2.582031 -3.578125 2.96875 -3.453125 C 3.34375 -3.328125 3.644531 -3.207031 3.875 -3.09375 C 4.113281 -2.976562 4.316406 -2.804688 4.484375 -2.578125 C 4.660156 -2.359375 4.75 -2.078125 4.75 -1.734375 C 4.75 -1.398438 4.660156 -1.097656 4.484375 -0.828125 C 4.316406 -0.554688 4.070312 -0.335938 3.75 -0.171875 C 3.4375 -0.015625 3.0625 0.0625 2.625 0.0625 Z M 2.625 0.0625 "/></g></g></g><g fill="#ffffff" fill-opacity="1"><g transform="translate(72.480071, 24.753194)"><g><path d="M 7.375 -7.71875 L 7.375 0 L 5.484375 0 L 5.484375 -3.171875 L 2.5625 -3.171875 L 2.5625 0 L 0.6875 0 L 0.6875 -7.71875 L 2.5625 -7.71875 L 2.5625 -4.703125 L 5.484375 -4.703125 L 5.484375 -7.71875 Z M 7.375 -7.71875 "/></g></g></g><g fill="#ffffff" fill-opacity="1"><g transform="translate(84.53207, 24.753194)"><g><path d="M 4.328125 0.078125 C 3.609375 0.078125 2.945312 -0.0859375 2.34375 -0.421875 C 1.738281 -0.765625 1.253906 -1.238281 0.890625 -1.84375 C 0.535156 -2.445312 0.359375 -3.128906 0.359375 -3.890625 C 0.359375 -4.640625 0.535156 -5.3125 0.890625 -5.90625 C 1.253906 -6.507812 1.738281 -6.976562 2.34375 -7.3125 C 2.945312 -7.65625 3.609375 -7.828125 4.328125 -7.828125 C 5.054688 -7.828125 5.722656 -7.65625 6.328125 -7.3125 C 6.929688 -6.976562 7.40625 -6.507812 7.75 -5.90625 C 8.101562 -5.3125 8.28125 -4.640625 8.28125 -3.890625 C 8.28125 -3.128906 8.101562 -2.445312 7.75 -1.84375 C 7.40625 -1.238281 6.929688 -0.765625 6.328125 -0.421875 C 5.722656 -0.0859375 5.054688 0.078125 4.328125 0.078125 Z M 4.328125 -1.640625 C 4.953125 -1.640625 5.445312 -1.84375 5.8125 -2.25 C 6.1875 -2.664062 6.375 -3.210938 6.375 -3.890625 C 6.375 -4.566406 6.1875 -5.109375 5.8125 -5.515625 C 5.445312 -5.921875 4.953125 -6.125 4.328125 -6.125 C 3.710938 -6.125 3.21875 -5.921875 2.84375 -5.515625 C 2.46875 -5.117188 2.28125 -4.578125 2.28125 -3.890625 C 2.28125 -3.203125 2.46875 -2.65625 2.84375 -2.25 C 3.21875 -1.84375 3.710938 -1.640625 4.328125 -1.640625 Z M 4.328125 -1.640625 "/></g></g></g><g fill="#ffffff" fill-opacity="1"><g transform="translate(97.188636, 24.753194)"><g><path d="M 9.421875 -7.71875 L 9.421875 0 L 7.546875 0 L 7.546875 -4.625 L 5.8125 0 L 4.296875 0 L 2.5625 -4.640625 L 2.5625 0 L 0.6875 0 L 0.6875 -7.71875 L 2.90625 -7.71875 L 5.078125 -2.375 L 7.21875 -7.71875 Z M 9.421875 -7.71875 "/></g></g></g><g fill="#ffffff" fill-opacity="1"><g transform="translate(111.296176, 24.753194)"><g><path d="M 2.5625 -6.21875 L 2.5625 -4.65625 L 5.078125 -4.65625 L 5.078125 -3.203125 L 2.5625 -3.203125 L 2.5625 -1.5 L 5.40625 -1.5 L 5.40625 0 L 0.6875 0 L 0.6875 -7.71875 L 5.40625 -7.71875 L 5.40625 -6.21875 Z M 2.5625 -6.21875 "/></g></g></g></svg>